# xmcd
# 
# Track frame offsets:
#     150
#     17375
#     33482
#     59243
#     80840
#     98745
#     113980
#     134849
#     148901
#     168033
#     186291
#     202111
#     217368
# 
# Disc length: 3097
# 
# Revision: 1
# Processed by: cddbd v1.5.2PL0 Copyright (c) Steve Scherf et al.
# Submitted via: fre:ac v1.0.31
# 
DISCID=d00c170d
DTITLE=Dirk Daniels - Freiheit
DYEAR=2006
DGENRE=Country
TTITLE0=Wach Auf
TTITLE1=Immer Mehr
TTITLE2=Sonst Keine Nur Du (Somebody Like You - K.Urban)
TTITLE3=Ich Mach Dich Stark
TTITLE4=Radio
TTITLE5=An Ende Der Nacht
TTITLE6=Nie Ein Freund
TTITLE7=High Heels
TTITLE8=Freiheit
TTITLE9=Mein Sohn
TTITLE10=Keine Lügen Mehr
TTITLE11=Leave Me Alone
TTITLE12=Mit Mir Da Machst Du Keinen Fehler - mit Linda Feller
EXTD=
EXTT0=
EXTT1=
EXTT2=
EXTT3=
EXTT4=
EXTT5=
EXTT6=
EXTT7=
EXTT8=
EXTT9=
EXTT10=
EXTT11=
EXTT12=
PLAYORDER=
